REM DIRINDEX 1\2\4,1\2\5,1\2\6,1\3\7,1\3\8,1\3\9,1\3\10
REM DIRNAME cjc057,folder01,folder02,folder03,folder04,folder05,folder06,folder07,folder08,folder09
TITLE ""
FILE "b_190.mp3" MP3
  TRACK 01 AUDIO
    TITLE "0:"
    INDEX 01 00:00:00
  TRACK 02 AUDIO
    TITLE "7:cjc057_09859"
    INDEX 01 00:00:13
  TRACK 03 AUDIO
    TITLE "0:"
    INDEX 01 00:01:50
  TRACK 04 AUDIO
    TITLE "8:cjc057_09860"
    INDEX 01 00:02:00
  TRACK 05 AUDIO
    TITLE "0:"
    INDEX 01 00:03:17
  TRACK 06 AUDIO
    TITLE "9:cjc057_09861"
    INDEX 01 00:03:59
  TRACK 07 AUDIO
    TITLE "0:"
    INDEX 01 00:07:41
  TRACK 08 AUDIO
    TITLE "7:cjc057_09862"
    INDEX 01 00:08:42
  TRACK 09 AUDIO
    TITLE "0:"
    INDEX 01 00:09:67
  TRACK 10 AUDIO
    TITLE "8:cjc057_09863"
    INDEX 01 00:10:21
  TRACK 11 AUDIO
    TITLE "0:"
    INDEX 01 00:12:65
  TRACK 12 AUDIO
    TITLE "9:cjc057_09864"
    INDEX 01 00:13:33
  TRACK 13 AUDIO
    TITLE "0:"
    INDEX 01 00:17:04
  TRACK 14 AUDIO
    TITLE "7:cjc057_09865"
    INDEX 01 00:18:07
  TRACK 15 AUDIO
    TITLE "0:"
    INDEX 01 00:19:46
  TRACK 16 AUDIO
    TITLE "8:cjc057_09866"
    INDEX 01 00:19:73
  TRACK 17 AUDIO
    TITLE "0:"
    INDEX 01 00:22:13
  TRACK 18 AUDIO
    TITLE "9:cjc057_09867"
    INDEX 01 00:22:56
  TRACK 19 AUDIO
    TITLE "0:"
    INDEX 01 00:26:32
  TRACK 20 AUDIO
    TITLE "7:cjc057_09868"
    INDEX 01 00:27:34
  TRACK 21 AUDIO
    TITLE "0:"
    INDEX 01 00:28:60
  TRACK 22 AUDIO
    TITLE "8:cjc057_09869"
    INDEX 01 00:29:13
  TRACK 23 AUDIO
    TITLE "0:"
    INDEX 01 00:30:46
  TRACK 24 AUDIO
    TITLE "9:cjc057_09870"
    INDEX 01 00:31:12
  TRACK 25 AUDIO
    TITLE "0:"
    INDEX 01 00:34:38
  TRACK 26 AUDIO
    TITLE "7:cjc057_09871"
    INDEX 01 00:35:45
  TRACK 27 AUDIO
    TITLE "0:"
    INDEX 01 00:36:62
  TRACK 28 AUDIO
    TITLE "8:cjc057_09872"
    INDEX 01 00:37:14
  TRACK 29 AUDIO
    TITLE "0:"
    INDEX 01 00:41:30
  TRACK 30 AUDIO
    TITLE "9:cjc057_09873"
    INDEX 01 00:41:73
  TRACK 31 AUDIO
    TITLE "0:"
    INDEX 01 00:45:00
  TRACK 32 AUDIO
    TITLE "7:cjc057_09874"
    INDEX 01 00:46:04
  TRACK 33 AUDIO
    TITLE "0:"
    INDEX 01 00:47:23
  TRACK 34 AUDIO
    TITLE "8:cjc057_09875"
    INDEX 01 00:47:54
  TRACK 35 AUDIO
    TITLE "0:"
    INDEX 01 00:50:31
  TRACK 36 AUDIO
    TITLE "9:cjc057_09876"
    INDEX 01 00:50:74
  TRACK 37 AUDIO
    TITLE "0:"
    INDEX 01 00:54:11
  TRACK 38 AUDIO
    TITLE "7:cjc057_09877"
    INDEX 01 00:55:12
  TRACK 39 AUDIO
    TITLE "0:"
    INDEX 01 00:56:43
  TRACK 40 AUDIO
    TITLE "8:cjc057_09878"
    INDEX 01 00:56:72
  TRACK 41 AUDIO
    TITLE "0:"
    INDEX 01 01:00:37
  TRACK 42 AUDIO
    TITLE "9:cjc057_09879"
    INDEX 01 01:00:74
  TRACK 43 AUDIO
    TITLE "0:"
    INDEX 01 01:04:01
  TRACK 44 AUDIO
    TITLE "7:cjc057_09880"
    INDEX 01 01:05:07
  TRACK 45 AUDIO
    TITLE "0:"
    INDEX 01 01:06:26
  TRACK 46 AUDIO
    TITLE "8:cjc057_09881"
    INDEX 01 01:06:57
  TRACK 47 AUDIO
    TITLE "0:"
    INDEX 01 01:09:52
  TRACK 48 AUDIO
    TITLE "9:cjc057_09882"
    INDEX 01 01:10:20
  TRACK 49 AUDIO
    TITLE "0:"
    INDEX 01 01:13:18
  TRACK 50 AUDIO
    TITLE "7:cjc057_09883"
    INDEX 01 01:14:21
  TRACK 51 AUDIO
    TITLE "0:"
    INDEX 01 01:15:56
  TRACK 52 AUDIO
    TITLE "8:cjc057_09884"
    INDEX 01 01:16:07
  TRACK 53 AUDIO
    TITLE "0:"
    INDEX 01 01:17:24
  TRACK 54 AUDIO
    TITLE "9:cjc057_09885"
    INDEX 01 01:17:65
  TRACK 55 AUDIO
    TITLE "0:"
    INDEX 01 01:21:29
  TRACK 56 AUDIO
    TITLE "7:cjc057_09886"
    INDEX 01 01:22:31
  TRACK 57 AUDIO
    TITLE "0:"
    INDEX 01 01:23:44
  TRACK 58 AUDIO
    TITLE "8:cjc057_09887"
    INDEX 01 01:23:71
  TRACK 59 AUDIO
    TITLE "0:"
    INDEX 01 01:25:15
  TRACK 60 AUDIO
    TITLE "9:cjc057_09888"
    INDEX 01 01:25:57
  TRACK 61 AUDIO
    TITLE "0:"
    INDEX 01 01:29:54
  TRACK 62 AUDIO
    TITLE "7:cjc057_09889"
    INDEX 01 01:30:58
  TRACK 63 AUDIO
    TITLE "0:"
    INDEX 01 01:32:02
  TRACK 64 AUDIO
    TITLE "8:cjc057_09890"
    INDEX 01 01:32:31
  TRACK 65 AUDIO
    TITLE "0:"
    INDEX 01 01:34:67
  TRACK 66 AUDIO
    TITLE "9:cjc057_09891"
    INDEX 01 01:35:33
  TRACK 67 AUDIO
    TITLE "0:"
    INDEX 01 01:38:08
  TRACK 68 AUDIO
    TITLE "7:cjc057_09892"
    INDEX 01 01:39:12
  TRACK 69 AUDIO
    TITLE "0:"
    INDEX 01 01:40:27
  TRACK 70 AUDIO
    TITLE "8:cjc057_09893"
    INDEX 01 01:40:54
  TRACK 71 AUDIO
    TITLE "0:"
    INDEX 01 01:43:31
  TRACK 72 AUDIO
    TITLE "9:cjc057_09894"
    INDEX 01 01:43:72
  TRACK 73 AUDIO
    TITLE "0:"
    INDEX 01 01:47:58
  TRACK 74 AUDIO
    TITLE "7:cjc057_09895"
    INDEX 01 01:48:61
  TRACK 75 AUDIO
    TITLE "0:"
    INDEX 01 01:50:09
  TRACK 76 AUDIO
    TITLE "8:cjc057_09896"
    INDEX 01 01:50:39
  TRACK 77 AUDIO
    TITLE "0:"
    INDEX 01 01:53:41
  TRACK 78 AUDIO
    TITLE "9:cjc057_09897"
    INDEX 01 01:54:09
  TRACK 79 AUDIO
    TITLE "0:"
    INDEX 01 01:56:57
  TRACK 80 AUDIO
    TITLE "7:cjc057_09898"
    INDEX 01 01:57:62
  TRACK 81 AUDIO
    TITLE "0:"
    INDEX 01 01:59:03
  TRACK 82 AUDIO
    TITLE "8:cjc057_09899"
    INDEX 01 01:59:34
  TRACK 83 AUDIO
    TITLE "0:"
    INDEX 01 02:02:20
  TRACK 84 AUDIO
    TITLE "9:cjc057_09900"
    INDEX 01 02:02:62
  TRACK 85 AUDIO
    TITLE "0:"
    INDEX 01 02:06:57
